<?xml version="1.0" encoding="UTF-8"?>
<!DOCTYPE svg PUBLIC "-//W3C//DTD SVG 1.1//EN" "http://www.w3.org/Graphics/SVG/1.1/DTD/svg11.dtd">
<svg xmlns="http://www.w3.org/2000/svg" xmlns:xlink="http://www.w3.org/1999/xlink" version="1.1" width="1615px" height="1629px" viewBox="-0.5 -0.5 1615 1629"><defs><style type="text/css">@import url(https://fonts.googleapis.com/css2?family=Architects+Daughter:wght@400;500);&#xa;@import url(https://fonts.googleapis.com/css2?family=Lato:wght@400;500);&#xa;</style></defs><g><g data-cell-id="0"><g data-cell-id="1"><g data-cell-id="CdMpTlR5mjF_lNp4O5YN-23"><g/><g data-cell-id="CdMpTlR5mjF_lNp4O5YN-1"><g style="filter: drop-shadow(rgba(0, 0, 0, 0.25) 20px 30px 20px);"><path d="M 393.31 453.31 L 393.31 153.31 Q 393.31 53.31 476.51 108.78 L 910.1 397.84 Q 993.31 453.31 910.1 508.78 L 476.51 797.84 Q 393.31 853.31 393.31 753.31 Z" fill="#d5e8d4" stroke="#82b366" stroke-width="30" stroke-miterlimit="10" transform="rotate(75,693.31,453.31)" pointer-events="all"/></g></g><g data-cell-id="CdMpTlR5mjF_lNp4O5YN-2"><g style="filter: drop-shadow(rgba(0, 0, 0, 0.25) 20px 30px 20px);"><path d="M 823.31 693.31 L 823.31 393.31 Q 823.31 293.31 906.51 348.78 L 1340.1 637.84 Q 1423.31 693.31 1340.1 748.78 L 906.51 1037.84 Q 823.31 1093.31 823.31 993.31 Z" fill="#d5e8d4" stroke="#82b366" stroke-width="40" stroke-miterlimit="10" transform="rotate(165,1123.31,693.31)" pointer-events="all"/></g></g><g data-cell-id="CdMpTlR5mjF_lNp4O5YN-3"><g style="filter: drop-shadow(rgba(0, 0, 0, 0.25) 20px 30px 20px);"><path d="M 583.31 1133.31 L 583.31 833.31 Q 583.31 733.31 666.51 788.78 L 1100.1 1077.84 Q 1183.31 1133.31 1100.1 1188.78 L 666.51 1477.84 Q 583.31 1533.31 583.31 1433.31 Z" fill="#dae8fc" stroke="#6c8ebf" stroke-width="30" stroke-miterlimit="10" transform="rotate(-105,883.31,1133.31)" pointer-events="all"/></g></g><g data-cell-id="CdMpTlR5mjF_lNp4O5YN-4"><g style="filter: drop-shadow(rgba(0, 0, 0, 0.25) 20px 30px 20px);"><path d="M 163.31 883.31 L 163.31 583.31 Q 163.31 483.31 246.51 538.78 L 680.1 827.84 Q 763.31 883.31 680.1 938.78 L 246.51 1227.84 Q 163.31 1283.31 163.31 1183.31 Z" fill="#dae8fc" stroke="#6c8ebf" stroke-width="30" stroke-miterlimit="10" transform="rotate(-15,463.31,883.31)" pointer-events="all"/></g></g></g></g></g></g></svg>
